<svg width="1200" height="630" viewBox="0 0 1200 630" fill="none" xmlns="http://www.w3.org/2000/svg">
  <!-- Background -->
  <rect width="1200" height="630" fill="#17171c"/>

  <!-- Gradient overlay -->
  <defs>
    <linearGradient id="grad" x1="0%" y1="0%" x2="100%" y2="100%">
      <stop offset="0%" style="stop-color:#1f2024;stop-opacity:1" />
      <stop offset="100%" style="stop-color:#17171c;stop-opacity:1" />
    </linearGradient>
  </defs>
  <rect width="1200" height="630" fill="url(#grad)"/>

  <!-- Logo Shield -->
  <g transform="translate(500, 140) scale(4)">
    <path d="M12 2L2 7V10C2 16.5 6.84 22.74 12 24C17.16 22.74 22 16.5 22 10V7L12 2Z" fill="#3182f6" opacity="0.2"/>
    <path d="M12 2L2 7V10C2 16.5 6.84 22.74 12 24C17.16 22.74 22 16.5 22 10V7L12 2ZM12 22C7.94 20.84 4 15.36 4 10.5V8.3L12 4.26L20 8.3V10.5C20 15.36 16.06 20.84 12 22Z" fill="#3182f6"/>
    <path d="M12 7C10.34 7 9 8.34 9 10V11H8V17H16V11H15V10C15 8.34 13.66 7 12 7ZM13 11H11V10C11 9.45 11.45 9 12 9C12.55 9 13 9.45 13 10V11Z" fill="#3182f6"/>
  </g>

  <!-- Title -->
  <text x="600" y="420" font-family="system-ui, -apple-system, sans-serif" font-size="52" font-weight="700" fill="#ececec" text-anchor="middle">소방용 건축물대장 검색</text>

  <!-- Subtitle -->
  <text x="600" y="480" font-family="system-ui, -apple-system, sans-serif" font-size="28" fill="#8b95a1" text-anchor="middle">주소 검색으로 소방시설 설치기준을 확인하세요</text>

  <!-- Bottom accent line -->
  <rect x="450" y="540" width="300" height="4" rx="2" fill="#3182f6"/>
</svg>
