<svg width="32" height="32" viewBox="0 0 24 24" fill="none" xmlns="http://www.w3.org/2000/svg">
  <path d="M12 2L2 7V10C2 16.5 6.84 22.74 12 24C17.16 22.74 22 16.5 22 10V7L12 2Z" fill="#3182f6" opacity="0.2"/>
  <path d="M12 2L2 7V10C2 16.5 6.84 22.74 12 24C17.16 22.74 22 16.5 22 10V7L12 2ZM12 22C7.94 20.84 4 15.36 4 10.5V8.3L12 4.26L20 8.3V10.5C20 15.36 16.06 20.84 12 22Z" fill="#3182f6"/>
  <path d="M12 7C10.34 7 9 8.34 9 10V11H8V17H16V11H15V10C15 8.34 13.66 7 12 7ZM13 11H11V10C11 9.45 11.45 9 12 9C12.55 9 13 9.45 13 10V11Z" fill="#3182f6"/>
</svg>
